<?xml version="1.0" encoding="utf-8"?>
<!-- Generator: Adobe Illustrator 15.0.0, SVG Export Plug-In . SVG Version: 6.00 Build 0)  -->
<!DOCTYPE svg PUBLIC "-//W3C//DTD SVG 1.1//EN" "http://www.w3.org/Graphics/SVG/1.1/DTD/svg11.dtd">
<svg version="1.1" id="Layer_1" xmlns="http://www.w3.org/2000/svg" xmlns:xlink="http://www.w3.org/1999/xlink" x="0px" y="0px"
	 width="158px" height="44px" viewBox="74.464 -91.784 158 44" enable-background="new 74.464 -91.784 158 44" xml:space="preserve"
	>
<g>
	<path fill="#BEFCF6" d="M109.049-61.979c2.99,4.006,5.463,7.33,5.463,7.33s-11.66-1.795-26.572,6.39
		C87.939-48.259,95.588-57.49,109.049-61.979z"/>
	<path fill="#32C9D8" d="M112.313-70.437l4.33,6.594c-2.713,0.419-5.231,1.077-7.594,1.864c-1.078-1.445-2.222-2.976-3.344-4.475
		C108.115-68.104,110.371-69.423,112.313-70.437z"/>
	<path fill="#3AD5DD" d="M105.705-66.452c1.122,1.499,2.266,3.028,3.344,4.476C95.589-57.49,87.94-48.257,87.94-48.257
		C93.376-56.682,99.982-62.525,105.705-66.452z"/>
	<path fill="#5ED4E7" d="M87.939-48.259c0,0-6.142-9.251-12.109-17.94C75.831-66.199,83.791-54.764,87.939-48.259z"/>
	<path fill="#3C1592" d="M104.646-82.118l7.666,11.681c-6.551,3.425-16.646,10.208-24.373,22.178
		c-4.148-6.505-12.109-17.94-12.109-17.94C88.725-79.652,104.646-82.118,104.646-82.118z"/>
	<path fill="#281787" d="M100.16-73.822c1.324,1.741,3.39,4.492,5.545,7.37c-5.723,3.927-12.33,9.771-17.766,18.193
		c-3.646-5.456-12.109-17.94-12.109-17.94S85.92-74.38,100.16-73.822z"/>
	<path fill="none" d="M117.756-86.846c1.4,2.267-0.658,4.166-0.748,4.245l-2.802,2.11c-1.161-1.733-2.388-3.572-3.511-5.271
		c0.461-0.313,1.22-0.832,2.412-1.661C115.43-88.948,116.919-87.952,117.756-86.846z"/>
	<path fill="#F79406" d="M107.111-91.312c0.566,0.935,1.608,2.546,2.845,4.427c-0.446,0.305-0.61,0.411-0.616,0.413l0.73,1.13
		c0,0,0.164-0.105,0.625-0.42c1.123,1.699,2.35,3.538,3.511,5.271l-0.838,0.631l0.809,1.074l0.778-0.585
		c2.232,3.327,4.041,5.998,4.041,5.998s-2.682,0.842-6.684,2.936l-7.666-11.681c0,0-15.921,2.465-28.815,15.918
		C75.831-66.199,87.603-84.249,107.111-91.312z"/>
	<path fill="#32C9D8" d="M117.008-82.601c0.09-0.08,2.148-1.978,0.748-4.245c-0.837-1.106-2.326-2.103-4.648-0.577
		c-1.191,0.83-1.949,1.349-2.41,1.661c-0.252-0.381-0.5-0.756-0.741-1.123c0.457-0.31,1.209-0.824,2.397-1.652
		c3.598-2.362,5.866,0.076,6.512,0.93c1.629,2.633,0.082,5.083-1.004,6.045l-2.906,2.19c-0.246-0.365-0.496-0.741-0.749-1.12
		L117.008-82.601z"/>
	<path fill="#6E19A5" d="M110.07-85.342l-0.73-1.13c0.005-0.002,0.17-0.108,0.616-0.413c0.241,0.367,0.487,0.742,0.741,1.123
		C110.234-85.447,110.07-85.342,110.07-85.342z"/>
	<path fill="#6E19A5" d="M113.368-79.859l0.838-0.631c0.253,0.379,0.503,0.755,0.749,1.12l-0.778,0.585L113.368-79.859z"/>
	<g>
		<path fill="#FFFFFF" d="M123.936-65.57v-14.759h5.402c1.736,0,3.189,0.566,4.357,1.698c1.17,1.132,1.755,2.583,1.755,4.354v2.656
			c0,1.777-0.585,3.23-1.755,4.359c-1.168,1.128-2.621,1.691-4.357,1.691L123.936-65.57L123.936-65.57z M127.359-77.693v9.487h1.978
			c0.776,0,1.417-0.317,1.921-0.952c0.503-0.636,0.756-1.457,0.756-2.464v-2.676c0-0.993-0.253-1.807-0.756-2.442
			c-0.504-0.635-1.145-0.953-1.921-0.953H127.359z"/>
		<path fill="#FFFFFF" d="M136.838-71.155c0-1.649,0.467-2.993,1.398-4.029c0.934-1.037,2.233-1.556,3.902-1.556
			c1.676,0,2.98,0.519,3.913,1.556s1.398,2.38,1.398,4.029v0.212c0,1.656-0.466,3.001-1.398,4.035
			c-0.932,1.034-2.229,1.551-3.893,1.551c-1.683,0-2.99-0.517-3.923-1.551c-0.934-1.033-1.399-2.379-1.399-4.035L136.838-71.155
			L136.838-71.155z M140.266-70.943c0,0.92,0.144,1.642,0.43,2.166c0.287,0.522,0.775,0.784,1.466,0.784
			c0.669,0,1.147-0.264,1.438-0.79c0.291-0.527,0.437-1.247,0.437-2.16v-0.212c0-0.893-0.146-1.604-0.437-2.144
			c-0.291-0.538-0.777-0.807-1.459-0.807c-0.677,0-1.158,0.271-1.445,0.811c-0.286,0.542-0.43,1.254-0.43,2.14V-70.943z"/>
		<path fill="#FFFFFF" d="M152.113-76.538l0.133,1.541c0.357-0.547,0.8-0.975,1.326-1.283c0.527-0.307,1.115-0.461,1.766-0.461
			c1.074,0,1.913,0.365,2.52,1.095c0.604,0.73,0.908,1.889,0.908,3.477v6.599h-3.428v-6.607c0-0.696-0.111-1.191-0.335-1.485
			s-0.548-0.441-0.974-0.441c-0.364,0-0.692,0.064-0.983,0.193c-0.29,0.128-0.532,0.311-0.729,0.547v7.796H148.9v-10.97
			L152.113-76.538L152.113-76.538z"/>
		<path fill="#FFFFFF" d="M163.82-77.349l-1.031,2.534h-1.694v-5.514h2.728v2.98H163.82z"/>
		<path fill="#FFFFFF" d="M170.248-79.265v2.728h1.734v2.372h-1.734v5.028c0,0.392,0.08,0.674,0.238,0.846
			c0.158,0.173,0.373,0.259,0.644,0.259c0.177,0,0.315-0.007,0.42-0.021c0.106-0.014,0.239-0.04,0.401-0.08l0.232,2.533
			c-0.346,0.088-0.656,0.149-0.934,0.188s-0.604,0.057-0.982,0.057c-1.129,0-1.986-0.302-2.568-0.902
			c-0.586-0.602-0.877-1.555-0.877-2.857v-5.049h-1.53v-2.372h1.53v-2.728L170.248-79.265L170.248-79.265z"/>
		<path fill="#FFFFFF" d="M177.273-70.629v5.059h-3.429v-14.759h5.638c1.75,0,3.14,0.446,4.166,1.338
			c1.026,0.892,1.541,2.064,1.541,3.518c0,1.452-0.515,2.623-1.541,3.512c-1.026,0.889-2.416,1.332-4.166,1.332H177.273z
			 M177.273-73.264h2.209c0.742,0,1.312-0.205,1.703-0.614c0.393-0.408,0.586-0.934,0.586-1.576c0-0.656-0.191-1.193-0.58-1.612
			c-0.392-0.418-0.959-0.628-1.709-0.628h-2.209V-73.264L177.273-73.264z"/>
		<path fill="#FFFFFF" d="M193.105-65.581c-0.127-0.229-0.235-0.489-0.328-0.778c-0.092-0.291-0.159-0.597-0.207-0.914
			c-0.299,0.582-0.664,1.047-1.101,1.396c-0.436,0.348-1.005,0.521-1.709,0.521c-1.147,0-2.042-0.295-2.681-0.888
			c-0.639-0.59-0.958-1.396-0.958-2.417c0-1.088,0.41-1.928,1.228-2.519c0.817-0.592,2.059-0.887,3.721-0.887h1.408v-0.781
			c0-0.466-0.11-0.824-0.336-1.074c-0.222-0.25-0.563-0.376-1.021-0.376c-0.396,0-0.693,0.093-0.887,0.279
			c-0.192,0.186-0.289,0.475-0.289,0.867l-3.323-0.011l-0.021-0.061c-0.047-1,0.369-1.836,1.254-2.508
			c0.881-0.673,2.045-1.009,3.489-1.009c1.358,0,2.458,0.337,3.3,1.014c0.842,0.676,1.265,1.642,1.265,2.899v4.136
			c0,0.582,0.048,1.123,0.146,1.623s0.244,1,0.439,1.5L193.105-65.581z M190.693-67.8c0.418,0,0.789-0.099,1.108-0.294
			c0.321-0.196,0.548-0.43,0.675-0.7v-1.448h-1.379c-0.547,0-0.941,0.131-1.186,0.395c-0.243,0.263-0.365,0.598-0.365,1.004
			c0,0.311,0.105,0.563,0.316,0.755C190.08-67.896,190.355-67.8,190.693-67.8z"/>
		<path fill="#FFFFFF" d="M201.875-70.405l0.011,0.081h0.06l1.814-6.213h3.65l-4.369,12.6c-0.339,0.812-0.773,1.479-1.309,2.006
			c-0.533,0.527-1.383,0.791-2.545,0.791c-0.297,0-0.539-0.019-0.729-0.055c-0.188-0.037-0.485-0.106-0.894-0.209l0.416-2.441
			c0.096,0.02,0.164,0.035,0.213,0.045c0.049,0.011,0.106,0.016,0.184,0.016c0.541,0,0.938-0.079,1.188-0.238
			c0.25-0.158,0.437-0.396,0.559-0.715l0.271-0.71l-3.791-11.088h3.641L201.875-70.405z"/>
		<path fill="#FFFFFF" d="M216.229-68.439h-4.39l-0.853,2.869h-3.607l4.814-14.759h1.834v0.01l0.012-0.01h1.834l4.824,14.759h-3.607
			L216.229-68.439z M212.629-71.074h2.809l-1.379-4.582h-0.061L212.629-71.074z"/>
		<path fill="#FFFFFF" d="M225.141-65.57h-3.438v-15.814h3.438V-65.57z"/>
		<path fill="#FFFFFF" d="M230.825-65.57h-3.437v-15.814h3.437V-65.57z"/>
	</g>
	<g>
		<path fill="#FFFFFF" d="M210.622-56.229h-0.692v-0.83h0.692V-56.229z"/>
		<path fill="#FFFFFF" d="M214.367-56.634c0.389,0,0.732-0.114,1.031-0.345c0.299-0.229,0.449-0.549,0.449-0.957h0.541l0.012,0.029
			c0.014,0.508-0.188,0.932-0.601,1.271c-0.411,0.342-0.89,0.513-1.435,0.513c-0.729,0-1.301-0.257-1.704-0.771
			c-0.408-0.515-0.612-1.172-0.612-1.973v-0.213c0-0.798,0.203-1.452,0.608-1.967c0.405-0.514,0.974-0.771,1.702-0.771
			c0.59,0,1.078,0.18,1.472,0.533s0.581,0.82,0.565,1.398l-0.01,0.029h-0.543c0-0.438-0.143-0.789-0.43-1.052
			c-0.289-0.262-0.641-0.393-1.057-0.393c-0.573,0-1.002,0.211-1.281,0.634c-0.279,0.422-0.422,0.951-0.422,1.586v0.213
			c0,0.646,0.143,1.178,0.422,1.6C213.359-56.844,213.79-56.634,214.367-56.634z"/>
		<path fill="#FFFFFF" d="M217.363-59.051c0-0.809,0.221-1.471,0.664-1.986c0.44-0.518,1.029-0.775,1.759-0.775
			c0.733,0,1.321,0.26,1.764,0.775c0.441,0.516,0.664,1.18,0.664,1.986v0.168c0,0.811-0.221,1.474-0.662,1.988
			c-0.44,0.516-1.024,0.772-1.756,0.772c-0.735,0-1.325-0.258-1.769-0.772c-0.443-0.516-0.664-1.179-0.664-1.988V-59.051
			L217.363-59.051z M217.973-58.883c0,0.635,0.159,1.168,0.48,1.601c0.32,0.435,0.77,0.648,1.343,0.648
			c0.563,0,1.009-0.216,1.33-0.648c0.323-0.433,0.485-0.966,0.485-1.601v-0.168c0-0.625-0.162-1.156-0.487-1.592
			c-0.324-0.437-0.771-0.653-1.338-0.653s-1.013,0.218-1.333,0.653c-0.321,0.436-0.48,0.967-0.48,1.592V-58.883L217.973-58.883z"/>
		<path fill="#FFFFFF" d="M223.998-61.712l0.055,0.901c0.176-0.316,0.41-0.563,0.703-0.738c0.291-0.178,0.639-0.266,1.041-0.266
			c0.42,0,0.77,0.103,1.049,0.303c0.28,0.201,0.481,0.508,0.604,0.921c0.165-0.382,0.401-0.683,0.706-0.897
			c0.307-0.217,0.676-0.324,1.107-0.324c0.586,0,1.036,0.193,1.354,0.582c0.319,0.39,0.479,0.99,0.479,1.806v3.198h-0.607v-3.209
			c0-0.676-0.119-1.152-0.359-1.433c-0.24-0.278-0.57-0.418-0.994-0.418c-0.463,0-0.82,0.142-1.074,0.425
			c-0.252,0.281-0.414,0.646-0.479,1.092c0,0.037,0.001,0.074,0.003,0.11c0.002,0.037,0.002,0.085,0.002,0.142v3.291h-0.611v-3.209
			c0-0.662-0.121-1.137-0.363-1.422c-0.24-0.285-0.572-0.429-0.996-0.429s-0.764,0.106-1.016,0.322
			c-0.25,0.215-0.43,0.504-0.529,0.869v3.866h-0.608v-5.483H223.998z"/>
	</g>
</g>
</svg>
