<?xml version="1.0" encoding="utf-8"?>
<!-- Generator: Adobe Illustrator 16.0.2, SVG Export Plug-In . SVG Version: 6.00 Build 0)  -->
<!DOCTYPE svg PUBLIC "-//W3C//DTD SVG 1.1//EN" "http://www.w3.org/Graphics/SVG/1.1/DTD/svg11.dtd">
<svg version="1.1" id="Layer_1" xmlns="http://www.w3.org/2000/svg" xmlns:xlink="http://www.w3.org/1999/xlink" x="0px" y="0px"
	 width="220px" height="50px" viewBox="0 0 220 50" enable-background="new 0 0 220 50" xml:space="preserve">
<g>
	<polygon fill="#FFFFFF" points="4,46.026 25.828,19.081 34.184,32.032 55.594,11.248 72.305,46.026 68.441,46.026 54.864,16.574 
		33.871,37.672 27.499,28.64 26.664,30.257 25.306,27.854 23.426,31.092 22.382,29.524 9.013,46.026 	"/>
	<path fill="#F7B419" d="M18.718,24.338c-0.338-1.051-0.523-2.172-0.523-3.334c0-6.007,4.87-10.877,10.877-10.877
		c6.006,0,10.875,4.87,10.875,10.877c0,0.724-0.071,1.431-0.207,2.115l6.049-5.871c-0.677-3.084-2.201-5.837-4.605-8.21
		c-3.376-3.376-7.408-5.065-12.145-5.065C24.303,3.972,20.27,5.66,16.894,9.036c-3.376,3.329-5.017,7.41-5.018,12.098
		c0,3.245,0.771,6.161,2.343,8.759L18.718,24.338z"/>
</g>
<g>
	<g>
		<g>
			<text transform="matrix(1 0 0 1 72.9341 36.4541)"><tspan x="0" y="0" fill="#FFFFFF" font-family="'Lato-Light'" font-size="19.9103">MOST</tspan><tspan x="56.017" y="0" fill="#FFFFFF" font-family="'Lato-Hairline'" font-size="19.9103"> </tspan></text>
		</g>
		<text transform="matrix(1 0 0 1 129.0332 36.6143)" fill="#FFFFFF" font-family="'Lato-Bold'" font-size="19.9103">COUPON</text>
	</g>
</g>
</svg>
